<?xml version="1.0" encoding="UTF-8"?>
<svg xmlns="http://www.w3.org/2000/svg" xmlns:xlink="http://www.w3.org/1999/xlink" width="272px" height="305px" viewBox="0 0 272 304" version="1.1">
<defs>
<clipPath id="clip1">
  <path d="M 0.0585938 17 L 271.089844 17 L 271.089844 287 L 0.0585938 287 Z M 0.0585938 17 "/>
</clipPath>
<clipPath id="clip2">
  <path d="M 54.265625 128.035156 L 216.886719 128.035156 L 216.886719 175.964844 L 54.265625 175.964844 Z M 54.265625 128.035156 "/>
</clipPath>
</defs>
<g id="surface1">
<g clip-path="url(#clip1)" clip-rule="nonzero">
<path style=" stroke:none;fill-rule:nonzero;fill:rgb(100%,0%,0%);fill-opacity:1;" d="M 72.484375 27.769531 C 72.484375 26.824219 72.957031 25.882812 73.902344 25.882812 C 74.847656 25.882812 75.792969 26.355469 75.792969 27.769531 C 76.265625 27.769531 77.210938 27.769531 77.683594 27.296875 C 79.578125 27.296875 81.46875 26.828125 82.886719 27.296875 C 84.304688 27.769531 85.25 27.769531 86.671875 28.242188 C 88.089844 28.710938 89.035156 28.242188 89.980469 27.769531 C 91.871094 27.296875 93.289062 26.355469 95.179688 25.882812 C 96.128906 25.410156 96.601562 25.410156 97.546875 25.410156 C 98.492188 24.941406 99.4375 24.941406 100.855469 24.46875 C 103.222656 23.996094 105.585938 23.523438 107.476562 22.582031 C 109.367188 21.640625 111.261719 21.640625 113.152344 21.167969 C 114.097656 21.167969 114.570312 20.699219 115.515625 20.226562 C 115.988281 20.226562 115.988281 19.753906 116.460938 19.28125 C 117.40625 18.8125 117.878906 18.339844 118.824219 18.8125 C 119.296875 19.28125 120.246094 19.28125 120.71875 18.8125 L 121.191406 18.8125 C 124.027344 18.8125 126.863281 18.339844 130.175781 18.8125 C 130.648438 18.8125 131.121094 18.8125 131.121094 18.8125 C 132.539062 17.867188 134.429688 17.867188 136.324219 17.867188 C 136.796875 17.867188 137.742188 17.867188 138.214844 17.867188 L 138.6875 17.867188 C 140.578125 17.867188 142.46875 17.867188 143.886719 18.339844 C 145.308594 18.339844 146.253906 18.8125 147.671875 19.28125 C 149.089844 19.28125 150.035156 19.28125 151.453125 19.753906 C 152.402344 19.753906 153.347656 19.753906 154.292969 19.753906 C 154.765625 19.753906 155.238281 19.753906 155.238281 19.753906 C 157.128906 20.226562 159.019531 20.226562 160.910156 20.226562 C 162.332031 20.695312 163.75 21.167969 165.640625 21.167969 C 166.113281 21.167969 166.585938 21.167969 167.058594 21.167969 C 167.53125 21.167969 168.003906 21.640625 168.476562 21.640625 L 168.949219 22.113281 C 170.84375 22.113281 172.261719 23.054688 174.152344 23.054688 C 174.625 23.054688 175.570312 23.054688 176.042969 23.527344 C 177.460938 24.46875 179.355469 24.941406 181.246094 24.941406 C 182.191406 24.941406 182.664062 25.410156 183.136719 25.882812 C 184.554688 26.355469 185.503906 26.828125 186.921875 27.296875 C 187.867188 27.769531 188.8125 27.296875 189.757812 27.769531 C 191.175781 28.238281 193.066406 28.710938 194.484375 30.125 C 195.433594 31.070312 196.378906 31.070312 197.796875 32.011719 C 198.269531 32.011719 198.742188 32.484375 199.214844 32.957031 C 200.632812 33.898438 202.050781 34.839844 203.472656 35.3125 C 203.945312 35.3125 204.417969 35.785156 204.890625 35.785156 C 206.308594 36.726562 207.726562 38.140625 209.617188 39.085938 C 210.5625 39.554688 211.035156 40.027344 211.984375 40.5 L 212.457031 40.5 C 213.875 41.914062 215.765625 42.855469 217.183594 44.269531 C 218.601562 45.683594 219.550781 46.628906 221.441406 47.570312 C 221.441406 47.570312 221.441406 47.570312 221.441406 48.042969 C 221.914062 48.984375 222.386719 49.457031 223.332031 49.929688 C 224.277344 50.398438 224.75 50.871094 225.222656 51.34375 C 226.640625 52.285156 228.0625 53.226562 229.007812 54.171875 C 229.480469 54.640625 229.953125 55.113281 230.898438 56.058594 C 231.371094 56.527344 231.84375 57 232.316406 57 C 234.207031 57.472656 235.152344 58.886719 236.574219 60.300781 C 237.519531 61.242188 238.9375 62.65625 239.882812 63.601562 C 240.355469 64.070312 240.828125 65.015625 241.300781 65.957031 C 242.246094 68.785156 243.664062 71.617188 245.085938 73.972656 C 245.085938 73.972656 245.085938 74.445312 245.558594 74.914062 L 245.558594 75.386719 C 246.503906 76.332031 246.976562 77.746094 247.921875 78.6875 C 248.394531 79.160156 248.394531 79.628906 248.867188 80.101562 C 249.8125 81.515625 250.285156 83.402344 251.230469 84.816406 C 252.652344 87.171875 253.597656 89.53125 254.542969 91.886719 L 254.542969 92.359375 C 255.015625 93.300781 255.488281 94.246094 255.960938 95.660156 C 255.960938 96.601562 256.90625 97.546875 257.378906 98.960938 C 257.851562 101.316406 259.269531 103.675781 259.742188 106.503906 C 259.742188 106.976562 260.214844 107.445312 260.214844 108.390625 C 260.6875 109.804688 261.164062 111.21875 261.636719 112.632812 C 261.636719 113.105469 262.109375 113.574219 262.582031 114.046875 C 263.527344 114.992188 263.527344 115.933594 263.527344 116.875 C 263.054688 118.761719 263.527344 120.648438 264 122.53125 C 264 123.003906 264 123.476562 264 124.417969 C 264.472656 126.304688 264.945312 128.664062 264.945312 130.546875 C 264.945312 131.019531 264.945312 131.964844 264.945312 132.433594 C 264.945312 133.847656 265.417969 135.261719 266.363281 136.675781 C 266.363281 137.148438 266.835938 137.148438 266.835938 137.148438 C 267.308594 137.621094 267.78125 138.5625 268.253906 139.035156 C 268.726562 139.503906 268.726562 139.503906 269.203125 139.976562 C 270.148438 140.921875 270.621094 141.863281 270.621094 143.277344 C 270.621094 143.75 270.148438 144.691406 270.148438 145.164062 C 270.148438 145.632812 270.148438 146.578125 270.621094 147.050781 C 271.09375 147.519531 271.09375 147.992188 271.09375 148.464844 C 271.09375 148.933594 270.621094 149.40625 270.148438 149.40625 C 269.675781 150.820312 267.78125 151.292969 267.308594 152.707031 C 266.835938 154.59375 266.363281 156.480469 265.890625 158.363281 C 265.417969 159.777344 265.417969 160.722656 265.417969 162.136719 C 265.417969 163.550781 264.945312 164.496094 264.945312 165.90625 C 264.472656 167.792969 264 169.679688 263.527344 171.566406 C 263.527344 172.507812 263.054688 173.453125 263.054688 174.394531 C 263.527344 174.867188 264 175.339844 264.472656 175.335938 C 265.417969 176.28125 266.363281 177.222656 267.308594 178.164062 C 267.78125 178.636719 267.78125 179.109375 267.308594 179.109375 C 266.835938 179.582031 266.363281 179.582031 265.890625 179.582031 C 265.417969 179.109375 264.472656 178.636719 264 178.636719 C 263.527344 178.167969 262.582031 177.695312 261.636719 178.164062 C 261.636719 179.109375 261.164062 180.050781 261.160156 180.523438 C 260.6875 181.46875 260.214844 182.882812 260.214844 183.824219 C 259.742188 185.710938 258.796875 187.125 258.324219 189.011719 C 257.378906 191.367188 256.433594 193.253906 255.488281 195.140625 C 255.015625 196.082031 254.542969 197.023438 254.070312 197.96875 C 254.070312 199.382812 252.652344 200.796875 252.175781 202.210938 C 251.230469 204.097656 250.285156 205.984375 249.339844 208.339844 C 248.867188 209.28125 248.394531 210.226562 247.921875 210.699219 C 246.976562 213.054688 246.03125 214.941406 244.609375 216.828125 C 243.664062 218.242188 242.71875 219.183594 241.773438 219.65625 C 240.828125 220.597656 239.882812 221.539062 238.9375 222.484375 C 238.464844 222.957031 237.992188 223.425781 237.519531 223.898438 C 237.046875 224.371094 237.046875 224.371094 236.574219 224.839844 C 235.625 226.253906 234.207031 227.199219 233.261719 228.613281 C 232.316406 229.554688 231.84375 230.5 230.425781 231.441406 C 229.480469 232.386719 228.535156 233.800781 227.113281 234.269531 C 226.640625 234.742188 226.167969 235.683594 225.695312 236.15625 C 225.222656 236.628906 224.75 237.570312 224.277344 238.042969 C 224.277344 238.984375 224.75 239.929688 224.75 240.398438 C 224.75 241.8125 223.332031 242.285156 222.386719 241.34375 C 220.96875 240.398438 220.96875 240.398438 219.550781 241.34375 C 218.128906 242.285156 216.710938 243.699219 214.820312 244.171875 C 214.347656 244.171875 214.347656 244.640625 213.875 244.644531 C 212.929688 245.113281 212.457031 246.058594 211.507812 246.527344 C 210.5625 247.472656 209.144531 247.941406 208.199219 248.886719 C 207.726562 249.355469 207.253906 249.355469 206.78125 249.828125 C 205.363281 250.773438 203.945312 251.242188 202.527344 252.65625 C 202.054688 253.128906 201.578125 253.128906 201.105469 253.601562 C 201.105469 254.070312 201.105469 254.070312 201.105469 254.542969 C 201.105469 255.488281 200.160156 256.429688 198.742188 255.957031 C 197.324219 255.488281 196.378906 255.957031 194.960938 255.957031 C 193.539062 256.429688 192.121094 257.371094 190.703125 257.84375 C 190.230469 257.84375 189.757812 258.316406 189.285156 258.785156 C 187.867188 259.730469 186.449219 260.203125 185.027344 260.671875 C 184.082031 260.671875 183.136719 261.617188 182.191406 261.617188 C 181.71875 261.617188 181.246094 262.085938 180.773438 262.085938 L 180.300781 262.085938 C 178.410156 263.5 176.515625 264.445312 174.625 265.859375 C 174.152344 265.859375 174.152344 266.332031 173.679688 266.800781 C 173.207031 267.746094 172.734375 268.214844 171.789062 268.214844 C 169.421875 268.214844 168.476562 270.101562 168.949219 271.988281 C 168.949219 272.460938 169.421875 272.929688 169.425781 273.402344 C 169.898438 274.34375 169.425781 275.289062 168.949219 275.757812 C 168.476562 276.230469 167.058594 276.230469 166.585938 275.289062 C 165.640625 274.34375 165.167969 273.402344 164.695312 271.988281 C 164.222656 271.042969 163.277344 270.101562 162.332031 269.628906 C 161.382812 269.160156 160.4375 269.160156 159.492188 269.628906 C 159.019531 269.628906 159.019531 270.101562 158.546875 270.101562 C 157.601562 271.042969 156.183594 271.515625 154.765625 271.042969 C 154.292969 271.042969 153.347656 271.042969 153.347656 271.515625 C 152.875 271.988281 152.875 272.929688 153.347656 273.402344 C 154.292969 274.34375 153.820312 275.289062 153.820312 276.703125 C 153.820312 278.589844 152.398438 279.53125 150.507812 278.589844 C 150.035156 278.117188 149.5625 278.117188 149.089844 277.644531 C 148.617188 277.644531 148.617188 277.171875 148.617188 276.703125 C 148.144531 276.230469 148.144531 275.289062 147.671875 274.34375 C 146.726562 274.816406 145.78125 274.816406 144.832031 275.289062 C 144.359375 275.289062 143.886719 275.757812 143.414062 275.757812 C 141.996094 275.757812 141.523438 275.757812 141.050781 274.34375 C 140.578125 272.929688 139.632812 272.929688 138.6875 272.460938 C 136.796875 271.988281 134.429688 271.988281 132.539062 271.042969 L 132.066406 271.042969 C 130.175781 269.628906 128.28125 269.628906 125.917969 269.628906 C 124.5 269.628906 123.082031 270.101562 121.664062 270.101562 C 120.246094 270.101562 119.296875 270.574219 118.351562 271.515625 C 117.878906 271.988281 117.40625 272.460938 116.933594 272.460938 C 116.460938 271.988281 116.460938 271.515625 115.988281 271.042969 L 115.988281 270.574219 C 115.988281 270.101562 115.515625 269.628906 115.042969 270.101562 C 114.097656 270.574219 113.152344 269.628906 112.207031 269.160156 C 111.734375 268.6875 110.785156 267.746094 110.785156 266.800781 C 110.3125 266.332031 109.839844 265.859375 109.367188 265.859375 C 108.421875 265.859375 107.003906 265.386719 106.058594 265.386719 C 105.585938 265.386719 105.113281 265.386719 105.113281 264.914062 C 104.640625 264.445312 104.167969 264.445312 103.222656 264.445312 C 102.75 264.445312 102.75 263.972656 102.273438 263.972656 C 103.222656 264.914062 103.695312 265.859375 104.167969 266.800781 C 104.167969 267.273438 104.640625 267.273438 104.640625 267.746094 C 105.113281 268.6875 104.640625 269.160156 103.222656 269.160156 C 102.273438 269.160156 102.273438 269.160156 101.800781 269.628906 C 101.800781 270.574219 101.800781 271.042969 101.800781 271.988281 C 101.800781 272.460938 101.800781 272.929688 100.855469 273.402344 C 100.855469 273.402344 100.382812 273.402344 100.382812 273.875 C 99.910156 274.34375 99.910156 274.816406 100.382812 275.289062 C 101.800781 276.230469 102.75 276.703125 104.167969 277.171875 C 105.585938 277.171875 105.585938 278.117188 106.058594 279.058594 C 106.53125 280.003906 106.058594 280.472656 105.585938 281.417969 C 104.640625 282.359375 103.695312 283.300781 102.746094 284.246094 C 101.328125 284.71875 100.382812 286.132812 98.964844 286.132812 C 98.019531 286.132812 97.074219 285.660156 96.601562 284.71875 C 96.128906 282.359375 96.128906 280.472656 97.074219 278.117188 C 97.074219 277.644531 97.546875 277.171875 97.074219 276.703125 C 92.816406 276.703125 92.816406 275.757812 92.816406 275.289062 C 92.816406 274.34375 93.289062 273.875 93.289062 272.929688 C 93.761719 271.988281 93.289062 271.515625 91.871094 271.042969 C 91.398438 271.042969 90.925781 271.042969 90.453125 271.042969 C 89.980469 271.042969 89.980469 270.574219 89.035156 270.574219 C 89.980469 270.101562 90.453125 270.101562 91.398438 269.628906 C 90.925781 267.746094 90.453125 266.332031 89.035156 265.386719 C 88.5625 264.914062 88.089844 264.445312 88.089844 263.5 C 88.089844 262.085938 87.144531 261.144531 86.671875 260.203125 C 85.722656 258.785156 83.832031 258.316406 82.414062 258.316406 C 80.996094 257.84375 80.050781 257.84375 78.628906 257.371094 C 77.210938 256.902344 75.792969 255.488281 74.375 255.015625 C 73.902344 254.542969 73.429688 254.070312 72.484375 253.601562 C 70.59375 252.65625 69.171875 251.242188 67.753906 249.828125 C 66.808594 249.359375 66.335938 248.414062 65.390625 247.941406 C 64.445312 247 63.972656 246.058594 63.027344 245.585938 C 62.078125 244.640625 61.132812 243.699219 59.714844 242.757812 C 58.296875 241.8125 57.351562 240.398438 55.933594 238.984375 C 54.988281 237.570312 53.566406 236.628906 52.148438 235.683594 C 51.675781 235.683594 51.203125 235.683594 50.730469 235.683594 C 50.257812 235.683594 49.785156 236.15625 49.3125 236.15625 C 47.894531 236.628906 46.949219 237.570312 45.527344 238.042969 C 46 237.570312 46 237.570312 45.527344 236.628906 C 45.054688 236.15625 44.582031 235.683594 44.109375 235.683594 C 43.164062 235.683594 42.21875 235.683594 41.273438 235.683594 C 39.382812 235.683594 37.492188 236.15625 35.597656 236.15625 C 34.179688 236.15625 32.289062 236.628906 30.871094 237.101562 C 31.34375 238.042969 31.34375 238.515625 31.816406 239.457031 C 30.871094 239.929688 29.925781 239.929688 28.976562 239.929688 C 28.503906 239.929688 27.558594 240.398438 27.085938 240.871094 C 26.613281 240.871094 26.613281 241.34375 26.140625 240.871094 C 25.195312 240.398438 24.25 240.871094 23.304688 241.34375 L 22.832031 241.34375 C 22.832031 241.34375 22.832031 240.871094 23.304688 240.871094 C 23.777344 240.398438 24.25 239.929688 24.722656 239.457031 C 25.195312 238.984375 25.667969 238.984375 26.613281 238.511719 C 26.140625 238.042969 26.140625 237.570312 26.140625 237.570312 C 25.667969 237.101562 25.195312 237.101562 24.722656 237.570312 C 24.25 238.042969 23.777344 238.515625 23.304688 238.984375 C 22.832031 239.457031 22.359375 239.457031 21.886719 238.984375 C 21.414062 238.515625 21.414062 238.042969 21.886719 237.570312 C 21.886719 237.101562 22.359375 236.628906 22.832031 236.15625 C 23.304688 235.683594 23.304688 235.214844 23.777344 234.742188 C 22.832031 233.796875 22.359375 232.855469 21.414062 232.382812 C 19.992188 231.441406 18.574219 230.027344 17.628906 228.613281 C 16.683594 226.726562 15.265625 225.3125 13.375 224.371094 C 12.902344 223.898438 12.425781 223.425781 11.953125 222.957031 C 11.480469 222.484375 11.480469 222.484375 11.007812 222.011719 C 9.589844 222.484375 8.644531 223.425781 7.226562 223.898438 C 6.753906 223.898438 6.753906 224.371094 6.28125 224.839844 C 5.808594 225.785156 4.863281 225.785156 3.917969 225.785156 C 3.445312 225.785156 2.96875 225.3125 3.445312 224.839844 C 3.917969 223.898438 4.390625 222.957031 5.808594 223.425781 C 5.808594 223.425781 6.28125 223.425781 6.28125 222.957031 C 7.226562 222.011719 8.171875 220.597656 9.589844 219.65625 C 9.117188 218.242188 8.171875 217.296875 7.699219 216.355469 C 7.226562 215.882812 7.226562 215.410156 7.226562 214.46875 C 7.226562 213.996094 7.226562 213.996094 6.753906 213.527344 C 6.753906 213.527344 6.28125 213.527344 5.808594 213.996094 C 5.335938 214.46875 4.390625 214.941406 3.445312 213.996094 C 3.445312 213.527344 3.445312 213.054688 3.917969 212.582031 L 4.390625 212.113281 C 5.808594 211.640625 5.808594 210.226562 5.808594 208.8125 L 5.808594 208.339844 C 5.335938 207.394531 5.335938 206.925781 6.28125 205.984375 C 7.699219 205.039062 9.117188 203.152344 9.589844 201.738281 C 10.0625 200.796875 11.007812 200.324219 11.953125 199.382812 C 12.902344 198.4375 13.847656 197.496094 14.320312 196.082031 L 14.792969 196.082031 C 16.683594 196.554688 17.15625 195.136719 18.101562 193.726562 C 18.101562 193.253906 18.101562 192.78125 18.574219 192.78125 C 19.523438 191.839844 19.523438 190.894531 19.046875 189.480469 C 19.046875 189.011719 18.574219 188.066406 18.574219 187.597656 C 18.574219 187.125 18.574219 187.125 18.101562 186.652344 C 16.683594 185.710938 16.683594 184.765625 18.101562 183.824219 C 19.046875 183.351562 19.046875 182.410156 19.519531 181.9375 C 19.992188 180.996094 19.992188 180.050781 19.996094 178.636719 C 19.523438 177.222656 19.523438 175.339844 19.046875 173.921875 C 18.574219 172.039062 18.101562 169.679688 17.628906 167.792969 C 17.628906 167.324219 17.628906 167.324219 17.628906 166.851562 C 17.628906 165.4375 17.628906 164.492188 17.15625 163.078125 C 16.683594 162.609375 16.683594 161.664062 16.683594 161.195312 C 16.210938 159.777344 15.738281 158.835938 14.320312 158.363281 C 12.902344 157.421875 11.007812 156.949219 9.589844 156.007812 C 9.117188 155.535156 8.644531 156.007812 8.171875 156.480469 C 7.699219 157.421875 6.753906 158.363281 6.28125 159.308594 C 5.808594 159.777344 5.335938 160.722656 4.863281 161.664062 C 3.914062 162.609375 2.023438 163.550781 0.605469 162.136719 C 0.132812 161.195312 -0.339844 160.722656 0.605469 159.777344 C 1.550781 158.363281 2.496094 156.949219 3.917969 156.007812 C 4.390625 155.535156 4.863281 154.59375 5.335938 154.121094 C 5.808594 153.179688 5.808594 152.234375 5.808594 151.292969 C 5.335938 149.40625 4.863281 147.519531 4.863281 145.164062 C 4.863281 142.804688 4.863281 140.921875 5.335938 138.5625 C 5.808594 137.621094 5.808594 136.207031 6.28125 135.261719 C 6.28125 134.792969 6.753906 133.847656 7.226562 133.378906 C 8.171875 132.433594 9.117188 131.492188 9.589844 130.078125 C 10.0625 128.660156 11.007812 127.246094 11.007812 125.835938 C 11.007812 125.363281 11.480469 124.890625 11.480469 124.417969 C 11.480469 123.949219 11.953125 123.003906 11.953125 122.53125 C 11.480469 121.117188 11.953125 120.175781 12.425781 119.234375 C 12.898438 118.289062 13.375 116.875 13.847656 115.933594 C 14.792969 114.046875 14.792969 111.691406 16.683594 109.804688 C 17.15625 108.859375 17.628906 107.917969 18.101562 106.976562 C 18.574219 105.089844 19.519531 103.675781 20.46875 102.261719 C 20.941406 101.789062 20.941406 101.789062 20.941406 101.316406 C 21.414062 99.902344 22.359375 98.488281 23.304688 97.074219 C 24.25 95.660156 24.25 94.246094 24.722656 92.832031 C 24.722656 92.359375 24.722656 91.886719 25.195312 91.417969 C 26.613281 90.003906 26.140625 88.117188 25.667969 86.230469 C 24.722656 83.871094 24.25 81.515625 24.722656 79.160156 C 24.722656 78.6875 24.722656 78.214844 25.195312 78.214844 C 25.667969 77.273438 25.667969 76.800781 26.140625 75.859375 L 26.140625 75.386719 C 27.085938 74.445312 28.03125 73.027344 29.453125 72.558594 C 31.34375 71.613281 33.234375 71.144531 35.597656 70.671875 C 37.492188 70.671875 39.382812 69.730469 40.800781 67.84375 C 40.800781 67.371094 41.273438 67.371094 41.746094 66.898438 L 42.21875 66.429688 C 42.691406 65.484375 43.164062 65.015625 43.636719 64.542969 C 44.582031 63.601562 45.527344 62.1875 46.476562 61.242188 C 47.421875 60.300781 48.367188 58.886719 49.785156 57.472656 L 50.257812 57 C 51.203125 56.058594 52.148438 55.113281 53.09375 54.640625 C 54.042969 53.699219 54.988281 52.757812 55.933594 51.8125 C 56.878906 50.871094 57.351562 49.929688 58.296875 48.984375 C 59.242188 48.511719 60.1875 47.570312 61.132812 46.628906 C 62.082031 45.683594 63.027344 44.742188 63.5 44.269531 C 64.445312 43.328125 65.863281 42.382812 66.808594 41.914062 C 67.753906 41.441406 68.699219 40.96875 69.171875 39.554688 C 69.644531 38.140625 70.121094 37.199219 70.59375 35.785156 C 70.59375 34.839844 71.066406 33.898438 71.539062 32.957031 C 72.011719 32.957031 72.484375 32.957031 73.429688 32.484375 C 72.957031 32.011719 72.484375 32.011719 72.484375 31.539062 C 72.484375 31.070312 72.957031 30.597656 72.957031 30.597656 C 72.957031 30.125 73.429688 29.65625 73.429688 29.183594 C 73.429688 29.183594 73.902344 29.183594 73.902344 28.710938 C 73.902344 28.710938 74.375 28.710938 74.375 28.242188 C 73.429688 28.710938 72.957031 28.242188 72.484375 27.769531 C 72.957031 28.238281 73.429688 28.238281 74.375 28.710938 C 74.375 28.710938 74.847656 28.710938 74.847656 28.242188 C 74.847656 27.769531 74.847656 27.296875 74.847656 27.296875 C 74.847656 27.296875 74.375 27.296875 73.902344 27.296875 C 73.429688 27.296875 72.957031 27.769531 72.484375 27.769531 Z M 154.292969 249.359375 C 154.292969 248.886719 153.820312 248.886719 153.820312 248.414062 C 153.347656 247.472656 153.820312 247 154.292969 246.527344 C 154.765625 246.058594 155.238281 246.058594 156.183594 246.058594 C 157.128906 246.527344 157.601562 247 157.601562 247.941406 C 157.601562 248.414062 157.601562 249.359375 157.601562 249.828125 C 158.074219 251.714844 158.074219 251.714844 159.964844 251.714844 C 160.910156 251.714844 161.855469 251.714844 162.804688 251.714844 C 164.695312 251.242188 166.585938 250.300781 168.476562 249.828125 C 170.371094 249.359375 172.261719 248.886719 174.152344 248.414062 C 174.625 248.414062 175.097656 248.414062 176.042969 248.414062 C 177.933594 248.886719 179.355469 248.414062 180.773438 247.472656 C 181.246094 247 182.191406 247 182.664062 246.527344 C 183.609375 246.058594 184.554688 246.058594 185.5 245.585938 C 187.867188 244.171875 190.230469 243.226562 192.121094 241.8125 C 193.539062 240.871094 194.960938 239.929688 196.378906 238.984375 C 197.796875 238.042969 199.214844 237.101562 200.632812 236.15625 C 201.578125 235.683594 203 234.742188 203.945312 233.796875 C 205.835938 232.382812 207.253906 230.96875 209.144531 230.027344 C 210.089844 229.554688 210.5625 229.085938 211.035156 228.613281 C 211.984375 228.140625 212.457031 227.199219 213.402344 226.726562 C 213.875 226.257812 214.347656 225.785156 215.292969 225.3125 C 215.765625 224.839844 215.765625 224.839844 215.765625 224.371094 C 217.183594 223.425781 218.601562 221.539062 219.550781 220.125 C 220.496094 219.183594 221.441406 218.242188 222.386719 216.828125 C 223.804688 215.410156 224.75 213.527344 226.167969 211.640625 C 227.113281 210.699219 228.058594 209.28125 228.535156 208.339844 C 229.480469 206.453125 230.425781 204.566406 231.84375 203.152344 L 231.84375 202.683594 C 232.789062 200.796875 233.734375 198.910156 234.679688 197.023438 C 236.101562 194.667969 237.046875 191.839844 238.464844 189.480469 C 238.9375 188.539062 239.410156 187.597656 239.410156 186.652344 C 240.355469 184.765625 240.828125 182.878906 241.300781 180.996094 C 241.300781 180.523438 241.300781 180.523438 241.773438 180.050781 C 243.191406 177.222656 244.140625 174.394531 244.609375 171.09375 C 245.082031 169.207031 245.558594 167.324219 246.03125 165.4375 C 246.976562 162.609375 246.976562 160.25 247.449219 157.421875 C 247.921875 155.535156 247.921875 153.179688 247.921875 151.292969 C 248.394531 148.464844 248.394531 145.164062 247.921875 142.335938 C 247.921875 139.976562 247.449219 137.148438 247.449219 134.792969 C 247.449219 132.433594 246.976562 130.546875 246.503906 128.191406 C 246.03125 125.832031 245.558594 123.949219 245.085938 121.589844 C 244.136719 119.703125 243.664062 117.820312 243.191406 115.460938 C 242.71875 113.574219 241.773438 112.160156 241.773438 110.273438 C 241.773438 108.859375 241.300781 107.445312 239.882812 106.976562 C 238.464844 106.503906 237.519531 106.03125 236.101562 105.089844 C 233.261719 103.203125 231.84375 100.847656 232.316406 98.015625 C 232.316406 96.601562 232.789062 94.71875 233.261719 93.300781 C 233.734375 91.886719 234.207031 90.472656 233.261719 89.53125 C 232.789062 88.117188 231.84375 87.171875 231.371094 86.230469 C 230.425781 84.816406 229.953125 83.871094 229.007812 82.929688 C 228.058594 81.042969 227.113281 79.160156 225.695312 77.746094 C 223.804688 75.386719 222.386719 73.03125 220.023438 71.144531 L 219.550781 70.671875 C 218.128906 68.785156 216.710938 66.898438 214.820312 65.484375 C 213.875 64.542969 212.929688 63.601562 211.984375 63.128906 C 211.511719 62.65625 211.035156 62.1875 210.089844 61.714844 C 208.671875 60.769531 207.253906 60.300781 206.308594 59.355469 C 204.890625 57.941406 203 57 201.578125 56.058594 C 201.578125 56.058594 201.105469 56.058594 201.105469 55.585938 C 199.214844 54.640625 197.796875 54.171875 195.90625 53.226562 C 194.011719 52.285156 192.121094 51.8125 190.230469 51.8125 C 189.757812 51.8125 189.757812 51.8125 189.285156 51.8125 C 188.8125 51.34375 187.867188 51.34375 187.394531 51.34375 C 186.921875 51.34375 186.921875 51.34375 186.449219 51.34375 C 185.5 50.871094 184.082031 51.34375 183.136719 51.34375 C 181.246094 51.8125 179.355469 51.8125 177.460938 50.871094 C 175.097656 49.929688 173.207031 48.984375 171.316406 48.042969 C 169.898438 47.097656 168.949219 46.15625 167.53125 45.214844 C 164.695312 42.855469 161.855469 40.027344 158.546875 37.667969 C 159.019531 35.3125 158.074219 34.839844 156.183594 34.839844 C 155.238281 34.839844 154.292969 35.3125 153.347656 35.785156 C 152.875 36.253906 152.875 36.253906 152.398438 36.726562 C 150.980469 37.667969 150.035156 39.085938 148.617188 40.027344 C 146.253906 41.441406 145.308594 40.972656 143.414062 40.027344 C 142.941406 39.554688 142.46875 39.085938 141.996094 38.613281 C 141.050781 37.667969 140.105469 36.253906 139.632812 35.3125 C 138.6875 33.425781 136.796875 33.425781 134.902344 33.425781 C 133.957031 33.425781 132.539062 33.898438 131.59375 33.898438 C 129.703125 33.898438 127.808594 34.839844 126.863281 36.253906 C 125.917969 37.667969 124.972656 39.085938 123.554688 40.5 C 123.082031 40.96875 122.136719 41.441406 121.664062 42.382812 C 120.71875 43.328125 119.773438 43.328125 118.824219 42.382812 C 118.351562 41.914062 117.878906 41.914062 117.40625 41.441406 C 116.933594 41.914062 116.460938 42.382812 116.460938 42.855469 C 115.988281 43.796875 115.515625 44.742188 115.042969 46.15625 C 114.570312 47.570312 113.625 48.984375 112.679688 49.929688 C 112.207031 50.398438 112.207031 50.398438 111.730469 50.871094 C 111.257812 51.8125 109.839844 52.285156 108.894531 52.285156 C 107.949219 53.230469 107.003906 54.644531 106.53125 55.585938 C 106.058594 56.527344 105.585938 57.472656 105.113281 58.886719 C 104.640625 59.355469 104.640625 60.300781 104.167969 60.769531 C 103.695312 61.714844 103.695312 62.1875 103.695312 63.128906 C 104.167969 64.542969 103.222656 65.015625 101.800781 65.484375 C 100.855469 65.484375 100.855469 65.484375 100.382812 66.429688 C 100.382812 67.84375 100.855469 68.785156 101.328125 70.203125 C 101.800781 70.671875 102.273438 71.617188 102.273438 72.085938 C 102.273438 73.03125 102.746094 73.5 103.695312 73.972656 C 104.167969 74.445312 104.640625 74.914062 105.113281 74.914062 C 105.585938 74.914062 105.585938 75.386719 106.058594 75.386719 C 106.53125 75.859375 107.003906 75.386719 107.003906 74.914062 C 107.476562 73.5 107.949219 72.085938 107.949219 70.671875 C 108.421875 68.785156 108.421875 67.371094 108.894531 65.484375 C 109.367188 64.542969 109.839844 64.070312 110.3125 63.601562 C 110.3125 63.601562 110.785156 63.601562 111.257812 63.601562 L 111.257812 64.070312 C 110.785156 66.429688 109.839844 69.257812 109.367188 71.617188 C 108.894531 72.558594 108.894531 73.5 108.421875 74.445312 C 108.421875 74.914062 107.949219 75.386719 107.476562 75.386719 C 106.53125 75.859375 105.585938 76.332031 104.640625 76.332031 C 104.167969 76.332031 103.695312 76.332031 103.222656 76.332031 C 102.273438 75.859375 101.328125 74.914062 100.382812 74.445312 C 99.910156 73.972656 99.4375 73.5 98.964844 73.03125 C 98.492188 72.085938 98.019531 71.144531 97.546875 70.203125 C 97.074219 69.257812 96.601562 68.785156 95.65625 68.316406 C 95.183594 67.84375 94.707031 67.84375 94.234375 67.371094 C 93.289062 66.429688 92.34375 65.957031 90.925781 65.957031 C 90.453125 65.957031 89.507812 65.957031 89.035156 65.957031 C 88.5625 65.957031 87.617188 66.429688 87.144531 66.898438 C 86.195312 67.371094 85.722656 67.371094 84.777344 66.898438 C 82.414062 65.957031 80.050781 66.429688 77.683594 67.371094 C 76.738281 67.84375 75.792969 68.316406 74.847656 68.316406 C 72.484375 68.316406 70.59375 68.316406 68.226562 68.316406 C 65.863281 68.316406 63.972656 67.84375 61.605469 67.371094 C 60.660156 67.371094 59.714844 67.371094 58.769531 67.371094 C 56.878906 67.84375 56.40625 69.257812 56.878906 71.144531 C 57.351562 73.027344 57.824219 75.386719 57.824219 77.273438 C 57.824219 78.6875 57.824219 80.101562 57.824219 81.515625 C 57.824219 82.460938 57.824219 82.929688 57.824219 83.875 C 57.824219 85.289062 57.351562 86.703125 57.351562 88.117188 C 56.878906 90.945312 55.460938 93.300781 53.570312 95.1875 C 52.148438 96.601562 50.257812 98.015625 48.367188 98.488281 C 47.421875 98.960938 46.476562 99.433594 45.054688 99.902344 C 42.691406 100.847656 40.800781 102.730469 39.382812 105.089844 C 38.910156 106.03125 38.4375 106.976562 37.964844 107.917969 C 37.019531 109.332031 36.546875 110.277344 35.597656 111.691406 C 35.125 112.632812 34.179688 113.574219 33.707031 114.519531 C 33.234375 115.460938 32.289062 115.933594 32.289062 116.875 C 31.34375 118.761719 30.871094 120.648438 29.925781 122.53125 C 29.453125 123.476562 29.453125 124.890625 28.980469 125.835938 C 28.03125 127.71875 28.03125 129.605469 28.03125 131.964844 C 28.03125 132.433594 28.03125 132.90625 28.03125 133.847656 C 28.03125 136.207031 27.558594 139.035156 27.558594 141.390625 C 27.558594 143.75 27.558594 146.105469 28.03125 148.464844 C 28.03125 149.40625 28.03125 150.820312 28.03125 151.765625 C 28.03125 153.648438 28.503906 156.007812 28.503906 157.894531 C 28.503906 159.777344 28.503906 162.136719 29.453125 164.023438 L 29.453125 164.492188 C 29.925781 166.378906 29.925781 168.265625 30.398438 170.152344 C 30.398438 170.621094 30.398438 171.09375 30.871094 171.566406 C 31.816406 174.394531 32.289062 176.75 33.234375 179.582031 C 33.707031 181.464844 34.652344 183.351562 35.125 185.238281 C 35.597656 187.125 37.492188 189.011719 37.964844 191.367188 C 39.382812 194.195312 40.800781 197.023438 42.691406 199.855469 C 43.164062 200.796875 44.109375 201.738281 44.582031 202.683594 C 45.53125 204.097656 46.003906 205.511719 46.949219 206.453125 C 47.421875 207.398438 48.367188 208.339844 48.839844 208.8125 C 49.3125 209.753906 49.785156 210.699219 50.730469 211.640625 C 51.675781 212.582031 52.621094 214 53.570312 214.941406 C 54.988281 217.296875 56.878906 219.183594 58.769531 220.597656 C 59.714844 221.542969 60.660156 222.011719 61.605469 222.957031 C 62.078125 223.425781 62.554688 223.425781 62.554688 223.898438 C 63.027344 224.371094 63.5 224.839844 64.445312 225.3125 C 68.226562 227.199219 71.066406 230.027344 74.375 232.855469 C 75.792969 234.269531 77.210938 235.683594 79.105469 236.628906 C 80.996094 238.042969 82.414062 239.457031 84.777344 239.929688 C 84.777344 239.929688 85.25 239.929688 85.25 240.398438 C 86.199219 241.34375 87.617188 241.8125 88.5625 242.285156 C 90.453125 243.230469 92.816406 244.171875 94.707031 245.113281 C 95.179688 245.585938 96.128906 245.585938 96.601562 246.058594 C 98.019531 246.527344 99.4375 247 100.855469 247.472656 C 102.273438 247.941406 103.222656 248.414062 104.640625 248.414062 L 105.113281 248.414062 C 106.058594 248.886719 106.53125 248.886719 107.476562 248.414062 C 107.949219 248.414062 108.421875 248.414062 108.421875 248.886719 C 108.421875 249.355469 108.894531 249.355469 109.367188 249.359375 C 109.839844 249.359375 110.3125 249.359375 111.257812 249.359375 C 111.730469 248.886719 111.730469 248.414062 112.207031 247.472656 C 112.679688 247.941406 113.152344 247.941406 113.152344 247.941406 C 113.625 248.886719 114.570312 248.886719 115.515625 248.886719 L 115.988281 248.886719 C 116.933594 248.886719 117.40625 248.886719 117.878906 248.414062 C 117.878906 247.941406 118.824219 247.941406 119.296875 247.941406 C 120.71875 248.414062 122.136719 248.414062 123.554688 248.886719 C 124.5 249.355469 125.917969 249.355469 126.390625 248.414062 C 126.863281 247.941406 127.335938 247.472656 128.28125 247.941406 C 129.230469 248.414062 129.703125 248.414062 130.648438 247.941406 C 131.121094 247.941406 131.59375 247.941406 131.59375 247.941406 C 133.011719 248.414062 133.957031 248.414062 135.375 248.886719 C 137.269531 249.355469 137.269531 249.355469 138.6875 247.941406 C 139.160156 247.472656 140.105469 247.472656 140.578125 247.941406 C 141.050781 248.886719 141.050781 249.359375 141.050781 250.300781 C 141.523438 250.300781 141.523438 250.300781 141.996094 249.828125 C 141.996094 248.886719 142.46875 248.886719 143.414062 248.414062 C 143.886719 248.886719 143.886719 248.886719 144.359375 248.886719 C 145.308594 249.828125 145.78125 249.828125 146.253906 248.414062 C 146.253906 247.941406 146.253906 247.472656 146.726562 247.472656 C 147.199219 247.472656 147.671875 247.941406 147.671875 247.941406 C 148.144531 248.886719 149.089844 249.359375 149.5625 250.300781 C 150.507812 251.242188 151.925781 251.242188 152.398438 250.300781 C 152.871094 249.828125 153.347656 249.828125 153.820312 249.828125 C 153.820312 249.359375 153.820312 248.886719 153.820312 248.414062 C 155.238281 249.359375 154.765625 249.359375 154.292969 249.359375 Z M 75.792969 29.183594 C 77.210938 29.65625 78.160156 29.65625 78.628906 28.710938 C 77.683594 29.183594 76.738281 28.242188 75.792969 29.183594 Z M 75.792969 29.183594 "/>
</g>
<g clip-path="url(#clip2)" clip-rule="nonzero">
<path style=" stroke:none;fill-rule:nonzero;fill:rgb(95.294118%,0%,0%);fill-opacity:1;" d="M 82.578125 131.03125 C 80.867188 130.03125 79.105469 129.285156 77.289062 128.785156 C 75.476562 128.285156 73.460938 128.035156 71.253906 128.035156 C 68.042969 128.035156 65.160156 128.808594 62.613281 130.351562 C 60.109375 131.800781 58.097656 133.882812 56.574219 136.589844 C 55.050781 139.292969 54.289062 142.410156 54.289062 145.945312 C 54.289062 149.105469 55.023438 152.039062 56.484375 154.742188 C 57.859375 157.363281 59.816406 159.457031 62.363281 161.019531 C 64.910156 162.578125 67.75 163.355469 70.871094 163.355469 C 73.964844 163.355469 76.738281 162.792969 79.203125 161.667969 C 81.117188 160.835938 82.722656 159.773438 84.019531 158.484375 L 84.019531 144.699219 L 70.3125 144.699219 L 70.3125 148.070312 L 80.203125 148.070312 L 80.203125 157.175781 C 79.242188 157.96875 78.042969 158.59375 76.601562 159.054688 C 75.164062 159.503906 73.757812 159.730469 72.375 159.730469 C 71.039062 159.730469 69.832031 159.578125 68.75 159.273438 C 67.660156 158.960938 66.511719 158.46875 65.304688 157.804688 C 63.34375 156.679688 61.777344 155.066406 60.609375 152.964844 C 59.441406 150.867188 58.855469 148.425781 58.855469 145.636719 C 58.855469 143.054688 59.335938 140.742188 60.296875 138.707031 C 61.261719 136.671875 62.773438 134.988281 64.835938 133.65625 C 66.902344 132.324219 69.167969 131.660156 71.625 131.660156 C 73.085938 131.660156 74.679688 131.890625 76.410156 132.347656 C 78.144531 132.800781 79.660156 133.359375 80.957031 134.027344 Z M 97.40625 159.671875 C 98.035156 159.671875 98.746094 159.550781 99.539062 159.300781 L 100.289062 162.226562 C 100.164062 162.273438 99.664062 162.484375 98.789062 162.855469 C 97.90625 163.230469 96.78125 163.414062 95.402344 163.414062 C 93.863281 163.414062 92.628906 162.886719 91.710938 161.828125 C 90.792969 160.761719 90.316406 159.378906 90.277344 157.675781 L 90.277344 129.601562 L 94.210938 129.601562 L 94.210938 156.238281 C 94.210938 157.363281 94.402344 158.21875 94.785156 158.804688 C 95.15625 159.382812 96.03125 159.671875 97.40625 159.671875 Z M 108.109375 154.3125 C 108.109375 156.347656 108.503906 157.800781 109.292969 158.671875 C 110.085938 159.546875 111.445312 159.980469 113.367188 159.980469 C 115.324219 159.980469 117.511719 159.421875 119.9375 158.304688 L 119.9375 138.898438 L 124 138.898438 L 124 162.855469 L 121.1875 162.855469 L 120.304688 161.109375 C 117.261719 162.695312 114.449219 163.484375 111.867188 163.484375 C 109.363281 163.484375 107.429688 162.757812 106.066406 161.300781 C 104.714844 159.839844 104.035156 157.84375 104.035156 155.308594 L 104.035156 138.898438 L 108.109375 138.898438 Z M 131.070312 175.835938 L 131.070312 138.898438 L 133.953125 138.898438 L 134.765625 140.703125 C 136.808594 139.292969 139.0625 138.585938 141.523438 138.585938 C 143.859375 138.585938 145.84375 139.085938 147.472656 140.085938 C 150.929688 142.25 152.660156 145.761719 152.660156 150.628906 C 152.660156 154.785156 151.492188 157.988281 149.152344 160.230469 C 146.863281 162.402344 144.132812 163.484375 140.964844 163.484375 C 138.914062 163.484375 136.972656 163.089844 135.136719 162.296875 L 135.136719 175.835938 Z M 140.523438 141.953125 C 139.355469 141.953125 138.382812 142.054688 137.609375 142.261719 C 136.839844 142.472656 136.015625 142.851562 135.136719 143.390625 L 135.136719 159.113281 C 136.765625 159.859375 138.539062 160.230469 140.460938 160.230469 C 142.964844 160.230469 144.90625 159.378906 146.28125 157.675781 C 147.65625 155.972656 148.34375 153.769531 148.34375 151.066406 C 148.34375 148.277344 147.675781 146.0625 146.339844 144.417969 C 145.003906 142.773438 143.066406 141.953125 140.523438 141.953125 Z M 160.667969 134.273438 C 159.921875 134.273438 159.296875 134.015625 158.796875 133.496094 C 158.296875 132.976562 158.046875 132.363281 158.046875 131.660156 C 158.046875 130.992188 158.296875 130.402344 158.796875 129.882812 C 159.296875 129.363281 159.921875 129.105469 160.667969 129.105469 C 161.375 129.105469 161.980469 129.363281 162.480469 129.882812 C 162.980469 130.402344 163.230469 130.992188 163.230469 131.660156 C 163.230469 132.363281 162.992188 132.976562 162.511719 133.496094 C 162.039062 134.015625 161.421875 134.273438 160.667969 134.273438 Z M 162.671875 138.898438 L 162.671875 162.855469 L 158.605469 162.855469 L 158.605469 138.898438 Z M 185.703125 147.632812 C 185.703125 145.597656 185.3125 144.136719 184.539062 143.261719 C 183.773438 142.386719 182.425781 141.953125 180.503906 141.953125 C 178.460938 141.953125 176.253906 142.515625 173.875 143.640625 L 173.875 162.855469 L 169.800781 162.855469 L 169.800781 138.898438 L 172.625 138.898438 L 173.496094 140.894531 C 176.371094 139.308594 179.191406 138.519531 181.945312 138.519531 C 184.488281 138.519531 186.429688 139.238281 187.765625 140.675781 C 189.097656 142.113281 189.765625 144.097656 189.765625 146.632812 L 189.765625 162.855469 L 185.703125 162.855469 Z M 212.738281 161.726562 C 210.648438 162.8125 208.539062 163.355469 206.40625 163.355469 C 202.570312 163.355469 199.628906 161.878906 197.585938 158.921875 C 196.125 156.761719 195.394531 154.222656 195.394531 151.316406 C 195.394531 148.359375 196.03125 145.855469 197.304688 143.800781 C 198.582031 141.734375 200.34375 140.25 202.59375 139.335938 C 203.632812 138.835938 204.988281 138.585938 206.660156 138.585938 C 208.621094 138.585938 210.5 139.003906 212.296875 139.835938 L 213.488281 140.394531 L 213.917969 138.898438 L 216.863281 138.898438 L 216.863281 163.984375 C 216.863281 166.1875 216.613281 167.953125 216.109375 169.285156 C 215.609375 170.617188 214.753906 171.84375 213.546875 172.96875 C 212.546875 173.921875 211.304688 174.65625 209.824219 175.175781 C 208.339844 175.703125 206.683594 175.964844 204.847656 175.964844 C 203.679688 175.964844 202.417969 175.816406 201.0625 175.523438 C 199.707031 175.230469 198.527344 174.855469 197.527344 174.398438 L 198.589844 171.53125 C 200.964844 172.363281 202.863281 172.78125 204.285156 172.78125 C 206.789062 172.78125 208.746094 172.175781 210.164062 170.972656 C 211.585938 169.761719 212.417969 168.054688 212.667969 165.851562 C 212.714844 165.390625 212.738281 164.226562 212.738281 162.355469 Z M 207.347656 160.050781 C 209.4375 160.050781 211.234375 159.613281 212.738281 158.734375 L 212.738281 143.082031 C 210.855469 142.25 208.996094 141.832031 207.160156 141.832031 C 204.65625 141.832031 202.761719 142.640625 201.472656 144.257812 C 200.175781 145.882812 199.527344 148.046875 199.527344 150.746094 C 199.527344 152.703125 199.902344 154.429688 200.652344 155.929688 C 201.40625 157.425781 202.429688 158.507812 203.726562 159.171875 C 204.765625 159.757812 205.972656 160.050781 207.347656 160.050781 Z M 207.347656 160.050781 "/>
</g>
</g>
</svg>
